<svg width="316" height="220" xmlns="http://www.w3.org/2000/svg">
<rect x="0" y="0" width="316" height="220" style="fill:#e0e0e0"/>
<line x1="0" x2="316" y1="50" y2="50" stroke-width="1" stroke="#fff"/>
<line x1="0" x2="316" y1="100" y2="100" stroke-width="1" stroke="#fff"/>
<line x1="0" x2="316" y1="150" y2="150" stroke-width="1" stroke="#fff"/>
<line x1="0" x2="316" y1="200" y2="200" stroke-width="1" stroke="#fff"/>

 <rect x="0" width="1" y="140.0" height="60.0"
  fill="#6c6c6c" stroke-width="0.1" stroke="#fff" />

 <rect x="1" width="1" y="170.0" height="30.0"
  fill="#6c6c6c" stroke-width="0.1" stroke="#fff" />

 <rect x="2" width="1" y="170.0" height="30.0"
  fill="#6c6c6c" stroke-width="0.1" stroke="#fff" />

 <rect x="3" width="1" y="170.0" height="30.0"
  fill="#6c6c6c" stroke-width="0.1" stroke="#fff" />

 <rect x="4" width="1" y="170.0" height="30.0"
  fill="#6c6c6c" stroke-width="0.1" stroke="#fff" />

 <rect x="5" width="1" y="155.0" height="45.0"
  fill="#6c6c6c" stroke-width="0.1" stroke="#fff" />

 <rect x="6" width="1" y="155.0" height="45.0"
  fill="#6c6c6c" stroke-width="0.1" stroke="#fff" />

 <rect x="7" width="1" y="155.0" height="45.0"
  fill="#6c6c6c" stroke-width="0.1" stroke="#fff" />

 <rect x="8" width="1" y="155.0" height="45.0"
  fill="#6c6c6c" stroke-width="0.1" stroke="#fff" />

 <rect x="9" width="1" y="155.0" height="45.0"
  fill="#6c6c6c" stroke-width="0.1" stroke="#fff" />

 <rect x="10" width="1" y="155.0" height="45.0"
  fill="#6c6c6c" stroke-width="0.1" stroke="#fff" />

 <rect x="11" width="1" y="155.0" height="45.0"
  fill="#6c6c6c" stroke-width="0.1" stroke="#fff" />

 <rect x="12" width="1" y="155.0" height="45.0"
  fill="#6c6c6c" stroke-width="0.1" stroke="#fff" />

 <rect x="13" width="1" y="155.0" height="45.0"
  fill="#6c6c6c" stroke-width="0.1" stroke="#fff" />

 <rect x="14" width="1" y="155.0" height="45.0"
  fill="#6c6c6c" stroke-width="0.1" stroke="#fff" />

 <rect x="15" width="1" y="155.0" height="45.0"
  fill="#6c6c6c" stroke-width="0.1" stroke="#fff" />

 <rect x="16" width="1" y="155.0" height="45.0"
  fill="#6c6c6c" stroke-width="0.1" stroke="#fff" />

 <rect x="17" width="1" y="155.0" height="45.0"
  fill="#6c6c6c" stroke-width="0.1" stroke="#fff" />

 <rect x="18" width="1" y="155.0" height="45.0"
  fill="#6c6c6c" stroke-width="0.1" stroke="#fff" />

 <rect x="19" width="1" y="155.0" height="45.0"
  fill="#6c6c6c" stroke-width="0.1" stroke="#fff" />

 <rect x="20" width="1" y="155.0" height="45.0"
  fill="#6c6c6c" stroke-width="0.1" stroke="#fff" />

 <rect x="21" width="1" y="155.0" height="45.0"
  fill="#6c6c6c" stroke-width="0.1" stroke="#fff" />

 <rect x="22" width="1" y="160.0" height="40.0"
  fill="#6c6c6c" stroke-width="0.1" stroke="#fff" />

 <rect x="23" width="1" y="160.0" height="40.0"
  fill="#6c6c6c" stroke-width="0.1" stroke="#fff" />

 <rect x="24" width="1" y="160.0" height="40.0"
  fill="#6c6c6c" stroke-width="0.1" stroke="#fff" />

 <rect x="25" width="1" y="150.0" height="50.0"
  fill="#6c6c6c" stroke-width="0.1" stroke="#fff" />

 <rect x="26" width="1" y="150.0" height="50.0"
  fill="#6c6c6c" stroke-width="0.1" stroke="#fff" />

 <rect x="27" width="1" y="150.0" height="50.0"
  fill="#6c6c6c" stroke-width="0.1" stroke="#fff" />

 <rect x="28" width="1" y="150.0" height="50.0"
  fill="#6c6c6c" stroke-width="0.1" stroke="#fff" />

 <rect x="29" width="1" y="150.0" height="50.0"
  fill="#6c6c6c" stroke-width="0.1" stroke="#fff" />

 <rect x="30" width="1" y="150.0" height="50.0"
  fill="#6c6c6c" stroke-width="0.1" stroke="#fff" />

 <rect x="31" width="1" y="150.0" height="50.0"
  fill="#6c6c6c" stroke-width="0.1" stroke="#fff" />

 <rect x="32" width="1" y="150.0" height="50.0"
  fill="#6c6c6c" stroke-width="0.1" stroke="#fff" />

 <rect x="33" width="1" y="150.0" height="50.0"
  fill="#6c6c6c" stroke-width="0.1" stroke="#fff" />

 <rect x="34" width="1" y="150.0" height="50.0"
  fill="#6c6c6c" stroke-width="0.1" stroke="#fff" />

 <rect x="35" width="1" y="150.0" height="50.0"
  fill="#6c6c6c" stroke-width="0.1" stroke="#fff" />

 <rect x="36" width="1" y="150.0" height="50.0"
  fill="#6c6c6c" stroke-width="0.1" stroke="#fff" />

 <rect x="37" width="1" y="150.0" height="50.0"
  fill="#6c6c6c" stroke-width="0.1" stroke="#fff" />

 <rect x="38" width="1" y="150.0" height="50.0"
  fill="#6c6c6c" stroke-width="0.1" stroke="#fff" />

 <rect x="39" width="1" y="150.0" height="50.0"
  fill="#6c6c6c" stroke-width="0.1" stroke="#fff" />

 <rect x="40" width="1" y="150.0" height="50.0"
  fill="#6c6c6c" stroke-width="0.1" stroke="#fff" />

 <rect x="41" width="1" y="150.0" height="50.0"
  fill="#6c6c6c" stroke-width="0.1" stroke="#fff" />

 <rect x="42" width="1" y="150.0" height="50.0"
  fill="#6c6c6c" stroke-width="0.1" stroke="#fff" />

 <rect x="43" width="1" y="150.0" height="50.0"
  fill="#6c6c6c" stroke-width="0.1" stroke="#fff" />

 <rect x="44" width="1" y="150.0" height="50.0"
  fill="#6c6c6c" stroke-width="0.1" stroke="#fff" />

 <rect x="45" width="1" y="150.0" height="50.0"
  fill="#6c6c6c" stroke-width="0.1" stroke="#fff" />

 <rect x="46" width="1" y="150.0" height="50.0"
  fill="#6c6c6c" stroke-width="0.1" stroke="#fff" />

 <rect x="47" width="1" y="150.0" height="50.0"
  fill="#6c6c6c" stroke-width="0.1" stroke="#fff" />

 <rect x="48" width="1" y="150.0" height="50.0"
  fill="#6c6c6c" stroke-width="0.1" stroke="#fff" />

 <rect x="49" width="1" y="150.0" height="50.0"
  fill="#6c6c6c" stroke-width="0.1" stroke="#fff" />

 <rect x="50" width="1" y="150.0" height="50.0"
  fill="#6c6c6c" stroke-width="0.1" stroke="#fff" />

 <rect x="51" width="1" y="150.0" height="50.0"
  fill="#6c6c6c" stroke-width="0.1" stroke="#fff" />

 <rect x="52" width="1" y="150.0" height="50.0"
  fill="#6c6c6c" stroke-width="0.1" stroke="#fff" />

 <rect x="53" width="1" y="150.0" height="50.0"
  fill="#6c6c6c" stroke-width="0.1" stroke="#fff" />

 <rect x="54" width="1" y="150.0" height="50.0"
  fill="#6c6c6c" stroke-width="0.1" stroke="#fff" />

 <rect x="55" width="1" y="150.0" height="50.0"
  fill="#6c6c6c" stroke-width="0.1" stroke="#fff" />

 <rect x="56" width="1" y="150.0" height="50.0"
  fill="#6c6c6c" stroke-width="0.1" stroke="#fff" />

 <rect x="57" width="1" y="150.0" height="50.0"
  fill="#6c6c6c" stroke-width="0.1" stroke="#fff" />

 <rect x="58" width="1" y="150.0" height="50.0"
  fill="#6c6c6c" stroke-width="0.1" stroke="#fff" />

 <rect x="59" width="1" y="150.0" height="50.0"
  fill="#6c6c6c" stroke-width="0.1" stroke="#fff" />

 <rect x="60" width="1" y="150.0" height="50.0"
  fill="#6c6c6c" stroke-width="0.1" stroke="#fff" />

 <rect x="61" width="1" y="150.0" height="50.0"
  fill="#6c6c6c" stroke-width="0.1" stroke="#fff" />

 <rect x="62" width="1" y="150.0" height="50.0"
  fill="#6c6c6c" stroke-width="0.1" stroke="#fff" />

 <rect x="63" width="1" y="150.0" height="50.0"
  fill="#6c6c6c" stroke-width="0.1" stroke="#fff" />

 <rect x="64" width="1" y="150.0" height="50.0"
  fill="#6c6c6c" stroke-width="0.1" stroke="#fff" />

 <rect x="65" width="1" y="150.0" height="50.0"
  fill="#6c6c6c" stroke-width="0.1" stroke="#fff" />

 <rect x="66" width="1" y="150.0" height="50.0"
  fill="#6c6c6c" stroke-width="0.1" stroke="#fff" />

 <rect x="67" width="1" y="150.0" height="50.0"
  fill="#6c6c6c" stroke-width="0.1" stroke="#fff" />

 <rect x="68" width="1" y="150.0" height="50.0"
  fill="#6c6c6c" stroke-width="0.1" stroke="#fff" />

 <rect x="69" width="1" y="150.0" height="50.0"
  fill="#6c6c6c" stroke-width="0.1" stroke="#fff" />

 <rect x="70" width="1" y="150.0" height="50.0"
  fill="#6c6c6c" stroke-width="0.1" stroke="#fff" />

 <rect x="71" width="1" y="150.0" height="50.0"
  fill="#6c6c6c" stroke-width="0.1" stroke="#fff" />

 <rect x="72" width="1" y="150.0" height="50.0"
  fill="#6c6c6c" stroke-width="0.1" stroke="#fff" />

 <rect x="73" width="1" y="150.0" height="50.0"
  fill="#6c6c6c" stroke-width="0.1" stroke="#fff" />

 <rect x="74" width="1" y="150.0" height="50.0"
  fill="#6c6c6c" stroke-width="0.1" stroke="#fff" />

 <rect x="75" width="1" y="150.0" height="50.0"
  fill="#6c6c6c" stroke-width="0.1" stroke="#fff" />

 <rect x="76" width="1" y="150.0" height="50.0"
  fill="#6c6c6c" stroke-width="0.1" stroke="#fff" />

 <rect x="77" width="1" y="150.0" height="50.0"
  fill="#6c6c6c" stroke-width="0.1" stroke="#fff" />

 <rect x="78" width="1" y="150.0" height="50.0"
  fill="#6c6c6c" stroke-width="0.1" stroke="#fff" />

 <rect x="79" width="1" y="150.0" height="50.0"
  fill="#6c6c6c" stroke-width="0.1" stroke="#fff" />

 <rect x="80" width="1" y="150.0" height="50.0"
  fill="#6c6c6c" stroke-width="0.1" stroke="#fff" />

 <rect x="81" width="1" y="150.0" height="50.0"
  fill="#6c6c6c" stroke-width="0.1" stroke="#fff" />

 <rect x="82" width="1" y="150.0" height="50.0"
  fill="#6c6c6c" stroke-width="0.1" stroke="#fff" />

 <rect x="83" width="1" y="150.0" height="50.0"
  fill="#6c6c6c" stroke-width="0.1" stroke="#fff" />

 <rect x="84" width="1" y="150.0" height="50.0"
  fill="#6c6c6c" stroke-width="0.1" stroke="#fff" />

 <rect x="85" width="1" y="150.0" height="50.0"
  fill="#6c6c6c" stroke-width="0.1" stroke="#fff" />

 <rect x="86" width="1" y="150.0" height="50.0"
  fill="#6c6c6c" stroke-width="0.1" stroke="#fff" />

 <rect x="87" width="1" y="150.0" height="50.0"
  fill="#6c6c6c" stroke-width="0.1" stroke="#fff" />

 <rect x="88" width="1" y="150.0" height="50.0"
  fill="#6c6c6c" stroke-width="0.1" stroke="#fff" />

 <rect x="89" width="1" y="150.0" height="50.0"
  fill="#6c6c6c" stroke-width="0.1" stroke="#fff" />

 <rect x="90" width="1" y="150.0" height="50.0"
  fill="#6c6c6c" stroke-width="0.1" stroke="#fff" />

 <rect x="91" width="1" y="150.0" height="50.0"
  fill="#6c6c6c" stroke-width="0.1" stroke="#fff" />

 <rect x="92" width="1" y="150.0" height="50.0"
  fill="#6c6c6c" stroke-width="0.1" stroke="#fff" />

 <rect x="93" width="1" y="150.0" height="50.0"
  fill="#6c6c6c" stroke-width="0.1" stroke="#fff" />

 <rect x="94" width="1" y="150.0" height="50.0"
  fill="#6c6c6c" stroke-width="0.1" stroke="#fff" />

 <rect x="95" width="1" y="150.0" height="50.0"
  fill="#6c6c6c" stroke-width="0.1" stroke="#fff" />

 <rect x="96" width="1" y="150.0" height="50.0"
  fill="#6c6c6c" stroke-width="0.1" stroke="#fff" />

 <rect x="97" width="1" y="150.0" height="50.0"
  fill="#6c6c6c" stroke-width="0.1" stroke="#fff" />

 <rect x="98" width="1" y="150.0" height="50.0"
  fill="#6c6c6c" stroke-width="0.1" stroke="#fff" />

 <rect x="99" width="1" y="150.0" height="50.0"
  fill="#6c6c6c" stroke-width="0.1" stroke="#fff" />

 <rect x="100" width="1" y="150.0" height="50.0"
  fill="#6c6c6c" stroke-width="0.1" stroke="#fff" />

 <rect x="101" width="1" y="150.0" height="50.0"
  fill="#6c6c6c" stroke-width="0.1" stroke="#fff" />

 <rect x="102" width="1" y="150.0" height="50.0"
  fill="#6c6c6c" stroke-width="0.1" stroke="#fff" />

 <rect x="103" width="1" y="150.0" height="50.0"
  fill="#6c6c6c" stroke-width="0.1" stroke="#fff" />

 <rect x="104" width="1" y="150.0" height="50.0"
  fill="#6c6c6c" stroke-width="0.1" stroke="#fff" />

 <rect x="105" width="1" y="150.0" height="50.0"
  fill="#6c6c6c" stroke-width="0.1" stroke="#fff" />

 <rect x="106" width="1" y="150.0" height="50.0"
  fill="#6c6c6c" stroke-width="0.1" stroke="#fff" />

 <rect x="107" width="1" y="150.0" height="50.0"
  fill="#6c6c6c" stroke-width="0.1" stroke="#fff" />

 <rect x="108" width="1" y="150.0" height="50.0"
  fill="#6c6c6c" stroke-width="0.1" stroke="#fff" />

 <rect x="109" width="1" y="150.0" height="50.0"
  fill="#6c6c6c" stroke-width="0.1" stroke="#fff" />

 <rect x="110" width="1" y="150.0" height="50.0"
  fill="#6c6c6c" stroke-width="0.1" stroke="#fff" />

 <rect x="111" width="1" y="150.0" height="50.0"
  fill="#6c6c6c" stroke-width="0.1" stroke="#fff" />

 <rect x="112" width="1" y="150.0" height="50.0"
  fill="#6c6c6c" stroke-width="0.1" stroke="#fff" />

 <rect x="113" width="1" y="150.0" height="50.0"
  fill="#6c6c6c" stroke-width="0.1" stroke="#fff" />

 <rect x="114" width="1" y="150.0" height="50.0"
  fill="#6c6c6c" stroke-width="0.1" stroke="#fff" />

 <rect x="115" width="1" y="150.0" height="50.0"
  fill="#6c6c6c" stroke-width="0.1" stroke="#fff" />

 <rect x="116" width="1" y="150.0" height="50.0"
  fill="#6c6c6c" stroke-width="0.1" stroke="#fff" />

 <rect x="117" width="1" y="150.0" height="50.0"
  fill="#6c6c6c" stroke-width="0.1" stroke="#fff" />

 <rect x="118" width="1" y="150.0" height="50.0"
  fill="#6c6c6c" stroke-width="0.1" stroke="#fff" />

 <rect x="119" width="1" y="150.0" height="50.0"
  fill="#6c6c6c" stroke-width="0.1" stroke="#fff" />

 <rect x="120" width="1" y="150.0" height="50.0"
  fill="#6c6c6c" stroke-width="0.1" stroke="#fff" />

 <rect x="121" width="1" y="150.0" height="50.0"
  fill="#6c6c6c" stroke-width="0.1" stroke="#fff" />

 <rect x="122" width="1" y="150.0" height="50.0"
  fill="#6c6c6c" stroke-width="0.1" stroke="#fff" />

 <rect x="123" width="1" y="150.0" height="50.0"
  fill="#6c6c6c" stroke-width="0.1" stroke="#fff" />

 <rect x="124" width="1" y="150.0" height="50.0"
  fill="#6c6c6c" stroke-width="0.1" stroke="#fff" />

 <rect x="125" width="1" y="150.0" height="50.0"
  fill="#6c6c6c" stroke-width="0.1" stroke="#fff" />

 <rect x="126" width="1" y="150.0" height="50.0"
  fill="#6c6c6c" stroke-width="0.1" stroke="#fff" />

 <rect x="127" width="1" y="150.0" height="50.0"
  fill="#6c6c6c" stroke-width="0.1" stroke="#fff" />

 <rect x="128" width="1" y="160.0" height="40.0"
  fill="#6c6c6c" stroke-width="0.1" stroke="#fff" />

 <rect x="129" width="1" y="160.0" height="40.0"
  fill="#6c6c6c" stroke-width="0.1" stroke="#fff" />

 <rect x="130" width="1" y="160.0" height="40.0"
  fill="#6c6c6c" stroke-width="0.1" stroke="#fff" />

 <rect x="131" width="1" y="160.0" height="40.0"
  fill="#6c6c6c" stroke-width="0.1" stroke="#fff" />

 <rect x="132" width="1" y="150.0" height="50.0"
  fill="#6c6c6c" stroke-width="0.1" stroke="#fff" />

 <rect x="133" width="1" y="160.0" height="40.0"
  fill="#6c6c6c" stroke-width="0.1" stroke="#fff" />

 <rect x="134" width="1" y="160.0" height="40.0"
  fill="#6c6c6c" stroke-width="0.1" stroke="#fff" />

 <rect x="135" width="1" y="160.0" height="40.0"
  fill="#6c6c6c" stroke-width="0.1" stroke="#fff" />

 <rect x="136" width="1" y="160.0" height="40.0"
  fill="#6c6c6c" stroke-width="0.1" stroke="#fff" />

 <rect x="137" width="1" y="160.0" height="40.0"
  fill="#6c6c6c" stroke-width="0.1" stroke="#fff" />

 <rect x="138" width="1" y="160.0" height="40.0"
  fill="#6c6c6c" stroke-width="0.1" stroke="#fff" />

 <rect x="139" width="1" y="160.0" height="40.0"
  fill="#6c6c6c" stroke-width="0.1" stroke="#fff" />

 <rect x="140" width="1" y="160.0" height="40.0"
  fill="#6c6c6c" stroke-width="0.1" stroke="#fff" />

 <rect x="141" width="1" y="160.0" height="40.0"
  fill="#6c6c6c" stroke-width="0.1" stroke="#fff" />

 <rect x="142" width="1" y="150.0" height="50.0"
  fill="#6c6c6c" stroke-width="0.1" stroke="#fff" />

 <rect x="143" width="1" y="150.0" height="50.0"
  fill="#6c6c6c" stroke-width="0.1" stroke="#fff" />

 <rect x="144" width="1" y="160.0" height="40.0"
  fill="#6c6c6c" stroke-width="0.1" stroke="#fff" />

 <rect x="145" width="1" y="140.0" height="60.0"
  fill="#6c6c6c" stroke-width="0.1" stroke="#fff" />

 <rect x="146" width="1" y="150.0" height="50.0"
  fill="#6c6c6c" stroke-width="0.1" stroke="#fff" />

 <rect x="147" width="1" y="150.0" height="50.0"
  fill="#6c6c6c" stroke-width="0.1" stroke="#fff" />

 <rect x="148" width="1" y="160.0" height="40.0"
  fill="#6c6c6c" stroke-width="0.1" stroke="#fff" />

 <rect x="149" width="1" y="160.0" height="40.0"
  fill="#6c6c6c" stroke-width="0.1" stroke="#fff" />

 <rect x="150" width="1" y="175.0" height="25.0"
  fill="#6c6c6c" stroke-width="0.1" stroke="#fff" />

 <rect x="151" width="1" y="170.0" height="30.0"
  fill="#6c6c6c" stroke-width="0.1" stroke="#fff" />

 <rect x="152" width="1" y="170.0" height="30.0"
  fill="#6c6c6c" stroke-width="0.1" stroke="#fff" />

 <rect x="153" width="1" y="120.0" height="80.0"
  fill="#6c6c6c" stroke-width="0.1" stroke="#fff" />

 <rect x="154" width="1" y="165.0" height="35.0"
  fill="#6c6c6c" stroke-width="0.1" stroke="#fff" />

 <rect x="155" width="1" y="170.0" height="30.0"
  fill="#6c6c6c" stroke-width="0.1" stroke="#fff" />

 <rect x="156" width="1" y="175.0" height="25.0"
  fill="#6c6c6c" stroke-width="0.1" stroke="#fff" />

 <rect x="157" width="1" y="170.0" height="30.0"
  fill="#6c6c6c" stroke-width="0.1" stroke="#fff" />

 <rect x="158" width="1" y="180.0" height="20.0"
  fill="#6c6c6c" stroke-width="0.1" stroke="#fff" />

 <rect x="159" width="1" y="150.0" height="50.0"
  fill="#6c6c6c" stroke-width="0.1" stroke="#fff" />

 <rect x="160" width="1" y="160.0" height="40.0"
  fill="#6c6c6c" stroke-width="0.1" stroke="#fff" />

 <rect x="161" width="1" y="130.0" height="70.0"
  fill="#6c6c6c" stroke-width="0.1" stroke="#fff" />

 <rect x="162" width="1" y="130.0" height="70.0"
  fill="#6c6c6c" stroke-width="0.1" stroke="#fff" />

 <rect x="163" width="1" y="120.0" height="80.0"
  fill="#6c6c6c" stroke-width="0.1" stroke="#fff" />

 <rect x="164" width="1" y="170.0" height="30.0"
  fill="#6c6c6c" stroke-width="0.1" stroke="#fff" />

 <rect x="165" width="1" y="175.0" height="25.0"
  fill="#6c6c6c" stroke-width="0.1" stroke="#fff" />

 <rect x="166" width="1" y="160.0" height="40.0"
  fill="#6c6c6c" stroke-width="0.1" stroke="#fff" />

 <rect x="167" width="1" y="165.0" height="35.0"
  fill="#6c6c6c" stroke-width="0.1" stroke="#fff" />

 <rect x="168" width="1" y="170.0" height="30.0"
  fill="#6c6c6c" stroke-width="0.1" stroke="#fff" />

 <rect x="169" width="1" y="160.0" height="40.0"
  fill="#6c6c6c" stroke-width="0.1" stroke="#fff" />

 <rect x="170" width="1" y="110.0" height="90.0"
  fill="#6c6c6c" stroke-width="0.1" stroke="#fff" />

 <rect x="171" width="1" y="130.0" height="70.0"
  fill="#6c6c6c" stroke-width="0.1" stroke="#fff" />

 <rect x="172" width="1" y="150.0" height="50.0"
  fill="#6c6c6c" stroke-width="0.1" stroke="#fff" />

 <rect x="173" width="1" y="180.0" height="20.0"
  fill="#6c6c6c" stroke-width="0.1" stroke="#fff" />

 <rect x="174" width="1" y="180.0" height="20.0"
  fill="#6c6c6c" stroke-width="0.1" stroke="#fff" />

 <rect x="175" width="1" y="175.0" height="25.0"
  fill="#6c6c6c" stroke-width="0.1" stroke="#fff" />

 <rect x="176" width="1" y="175.0" height="25.0"
  fill="#6c6c6c" stroke-width="0.1" stroke="#fff" />

 <rect x="177" width="1" y="150.0" height="50.0"
  fill="#6c6c6c" stroke-width="0.1" stroke="#fff" />

 <rect x="178" width="1" y="140.0" height="60.0"
  fill="#6c6c6c" stroke-width="0.1" stroke="#fff" />

 <rect x="179" width="1" y="130.0" height="70.0"
  fill="#6c6c6c" stroke-width="0.1" stroke="#fff" />

 <rect x="180" width="1" y="160.0" height="40.0"
  fill="#6c6c6c" stroke-width="0.1" stroke="#fff" />

 <rect x="181" width="1" y="160.0" height="40.0"
  fill="#6c6c6c" stroke-width="0.1" stroke="#fff" />

 <rect x="182" width="1" y="180.0" height="20.0"
  fill="#6c6c6c" stroke-width="0.1" stroke="#fff" />

 <rect x="183" width="1" y="150.0" height="50.0"
  fill="#6c6c6c" stroke-width="0.1" stroke="#fff" />

 <rect x="184" width="1" y="140.0" height="60.0"
  fill="#6c6c6c" stroke-width="0.1" stroke="#fff" />

 <rect x="185" width="1" y="180.0" height="20.0"
  fill="#6c6c6c" stroke-width="0.1" stroke="#fff" />

 <rect x="186" width="1" y="175.0" height="25.0"
  fill="#6c6c6c" stroke-width="0.1" stroke="#fff" />

 <rect x="187" width="1" y="150.0" height="50.0"
  fill="#6c6c6c" stroke-width="0.1" stroke="#fff" />

 <rect x="188" width="1" y="150.0" height="50.0"
  fill="#6c6c6c" stroke-width="0.1" stroke="#fff" />

 <rect x="189" width="1" y="170.0" height="30.0"
  fill="#6c6c6c" stroke-width="0.1" stroke="#fff" />

 <rect x="190" width="1" y="160.0" height="40.0"
  fill="#6c6c6c" stroke-width="0.1" stroke="#fff" />

 <rect x="191" width="1" y="180.0" height="20.0"
  fill="#6c6c6c" stroke-width="0.1" stroke="#fff" />

 <rect x="192" width="1" y="160.0" height="40.0"
  fill="#6c6c6c" stroke-width="0.1" stroke="#fff" />

 <rect x="193" width="1" y="160.0" height="40.0"
  fill="#6c6c6c" stroke-width="0.1" stroke="#fff" />

 <rect x="194" width="1" y="150.0" height="50.0"
  fill="#6c6c6c" stroke-width="0.1" stroke="#fff" />

 <rect x="195" width="1" y="150.0" height="50.0"
  fill="#6c6c6c" stroke-width="0.1" stroke="#fff" />

 <rect x="196" width="1" y="150.0" height="50.0"
  fill="#6c6c6c" stroke-width="0.1" stroke="#fff" />

 <rect x="197" width="1" y="160.0" height="40.0"
  fill="#6c6c6c" stroke-width="0.1" stroke="#fff" />

 <rect x="198" width="1" y="170.0" height="30.0"
  fill="#6c6c6c" stroke-width="0.1" stroke="#fff" />

 <rect x="199" width="1" y="170.0" height="30.0"
  fill="#6c6c6c" stroke-width="0.1" stroke="#fff" />

 <rect x="200" width="1" y="180.0" height="20.0"
  fill="#6c6c6c" stroke-width="0.1" stroke="#fff" />

 <rect x="201" width="1" y="180.0" height="20.0"
  fill="#6c6c6c" stroke-width="0.1" stroke="#fff" />

 <rect x="202" width="1" y="160.0" height="40.0"
  fill="#6c6c6c" stroke-width="0.1" stroke="#fff" />

 <rect x="203" width="1" y="170.0" height="30.0"
  fill="#6c6c6c" stroke-width="0.1" stroke="#fff" />

 <rect x="204" width="1" y="160.0" height="40.0"
  fill="#6c6c6c" stroke-width="0.1" stroke="#fff" />

 <rect x="205" width="1" y="150.0" height="50.0"
  fill="#6c6c6c" stroke-width="0.1" stroke="#fff" />

 <rect x="206" width="1" y="160.0" height="40.0"
  fill="#6c6c6c" stroke-width="0.1" stroke="#fff" />

 <rect x="207" width="1" y="160.0" height="40.0"
  fill="#6c6c6c" stroke-width="0.1" stroke="#fff" />

 <rect x="208" width="1" y="160.0" height="40.0"
  fill="#6c6c6c" stroke-width="0.1" stroke="#fff" />

 <rect x="209" width="1" y="160.0" height="40.0"
  fill="#6c6c6c" stroke-width="0.1" stroke="#fff" />

 <rect x="210" width="1" y="170.0" height="30.0"
  fill="#6c6c6c" stroke-width="0.1" stroke="#fff" />

 <rect x="211" width="1" y="160.0" height="40.0"
  fill="#6c6c6c" stroke-width="0.1" stroke="#fff" />

 <rect x="212" width="1" y="140.0" height="60.0"
  fill="#6c6c6c" stroke-width="0.1" stroke="#fff" />

 <rect x="213" width="1" y="145.0" height="55.0"
  fill="#6c6c6c" stroke-width="0.1" stroke="#fff" />

 <rect x="214" width="1" y="175.0" height="25.0"
  fill="#6c6c6c" stroke-width="0.1" stroke="#fff" />

 <rect x="215" width="1" y="150.0" height="50.0"
  fill="#6c6c6c" stroke-width="0.1" stroke="#fff" />

 <rect x="216" width="1" y="150.0" height="50.0"
  fill="#6c6c6c" stroke-width="0.1" stroke="#fff" />

 <rect x="217" width="1" y="160.0" height="40.0"
  fill="#6c6c6c" stroke-width="0.1" stroke="#fff" />

 <rect x="218" width="1" y="150.0" height="50.0"
  fill="#6c6c6c" stroke-width="0.1" stroke="#fff" />

 <rect x="219" width="1" y="150.0" height="50.0"
  fill="#6c6c6c" stroke-width="0.1" stroke="#fff" />

 <rect x="220" width="1" y="150.0" height="50.0"
  fill="#6c6c6c" stroke-width="0.1" stroke="#fff" />

 <rect x="221" width="1" y="150.0" height="50.0"
  fill="#6c6c6c" stroke-width="0.1" stroke="#fff" />

 <rect x="222" width="1" y="140.0" height="60.0"
  fill="#6c6c6c" stroke-width="0.1" stroke="#fff" />

 <rect x="223" width="1" y="150.0" height="50.0"
  fill="#6c6c6c" stroke-width="0.1" stroke="#fff" />

 <rect x="224" width="1" y="150.0" height="50.0"
  fill="#6c6c6c" stroke-width="0.1" stroke="#fff" />

 <rect x="225" width="1" y="150.0" height="50.0"
  fill="#6c6c6c" stroke-width="0.1" stroke="#fff" />

 <rect x="226" width="1" y="130.0" height="70.0"
  fill="#6c6c6c" stroke-width="0.1" stroke="#fff" />

 <rect x="227" width="1" y="145.0" height="55.0"
  fill="#6c6c6c" stroke-width="0.1" stroke="#fff" />

 <rect x="228" width="1" y="170.0" height="30.0"
  fill="#6c6c6c" stroke-width="0.1" stroke="#fff" />

 <rect x="229" width="1" y="160.0" height="40.0"
  fill="#6c6c6c" stroke-width="0.1" stroke="#fff" />

 <rect x="230" width="1" y="160.0" height="40.0"
  fill="#6c6c6c" stroke-width="0.1" stroke="#fff" />

 <rect x="231" width="1" y="160.0" height="40.0"
  fill="#6c6c6c" stroke-width="0.1" stroke="#fff" />

 <rect x="232" width="1" y="150.0" height="50.0"
  fill="#6c6c6c" stroke-width="0.1" stroke="#fff" />

 <rect x="233" width="1" y="155.0" height="45.0"
  fill="#6c6c6c" stroke-width="0.1" stroke="#fff" />

 <rect x="234" width="1" y="155.0" height="45.0"
  fill="#6c6c6c" stroke-width="0.1" stroke="#fff" />

 <rect x="235" width="1" y="140.0" height="60.0"
  fill="#6c6c6c" stroke-width="0.1" stroke="#fff" />

 <rect x="236" width="1" y="170.0" height="30.0"
  fill="#6c6c6c" stroke-width="0.1" stroke="#fff" />

 <rect x="237" width="1" y="140.0" height="60.0"
  fill="#6c6c6c" stroke-width="0.1" stroke="#fff" />

 <rect x="238" width="1" y="180.0" height="20.0"
  fill="#6c6c6c" stroke-width="0.1" stroke="#fff" />

 <rect x="239" width="1" y="180.0" height="20.0"
  fill="#6c6c6c" stroke-width="0.1" stroke="#fff" />

 <rect x="240" width="1" y="180.0" height="20.0"
  fill="#6c6c6c" stroke-width="0.1" stroke="#fff" />

 <rect x="241" width="1" y="180.0" height="20.0"
  fill="#6c6c6c" stroke-width="0.1" stroke="#fff" />

 <rect x="242" width="1" y="180.0" height="20.0"
  fill="#6c6c6c" stroke-width="0.1" stroke="#fff" />

 <rect x="243" width="1" y="180.0" height="20.0"
  fill="#6c6c6c" stroke-width="0.1" stroke="#fff" />

 <rect x="244" width="1" y="180.0" height="20.0"
  fill="#6c6c6c" stroke-width="0.1" stroke="#fff" />

 <rect x="245" width="1" y="180.0" height="20.0"
  fill="#6c6c6c" stroke-width="0.1" stroke="#fff" />

 <rect x="246" width="1" y="180.0" height="20.0"
  fill="#6c6c6c" stroke-width="0.1" stroke="#fff" />

 <rect x="247" width="1" y="180.0" height="20.0"
  fill="#6c6c6c" stroke-width="0.1" stroke="#fff" />

 <rect x="248" width="1" y="180.0" height="20.0"
  fill="#6c6c6c" stroke-width="0.1" stroke="#fff" />

 <rect x="249" width="1" y="180.0" height="20.0"
  fill="#6c6c6c" stroke-width="0.1" stroke="#fff" />

 <rect x="250" width="1" y="180.0" height="20.0"
  fill="#6c6c6c" stroke-width="0.1" stroke="#fff" />

 <rect x="251" width="1" y="180.0" height="20.0"
  fill="#6c6c6c" stroke-width="0.1" stroke="#fff" />

 <rect x="252" width="1" y="180.0" height="20.0"
  fill="#6c6c6c" stroke-width="0.1" stroke="#fff" />

 <rect x="253" width="1" y="180.0" height="20.0"
  fill="#6c6c6c" stroke-width="0.1" stroke="#fff" />

 <rect x="254" width="1" y="180.0" height="20.0"
  fill="#6c6c6c" stroke-width="0.1" stroke="#fff" />

 <rect x="255" width="1" y="180.0" height="20.0"
  fill="#6c6c6c" stroke-width="0.1" stroke="#fff" />

 <rect x="256" width="1" y="180.0" height="20.0"
  fill="#6c6c6c" stroke-width="0.1" stroke="#fff" />

 <rect x="257" width="1" y="180.0" height="20.0"
  fill="#6c6c6c" stroke-width="0.1" stroke="#fff" />

 <rect x="258" width="1" y="160.0" height="40.0"
  fill="#6c6c6c" stroke-width="0.1" stroke="#fff" />

 <rect x="259" width="1" y="165.0" height="35.0"
  fill="#6c6c6c" stroke-width="0.1" stroke="#fff" />

 <rect x="260" width="1" y="170.0" height="30.0"
  fill="#6c6c6c" stroke-width="0.1" stroke="#fff" />

 <rect x="261" width="1" y="155.0" height="45.0"
  fill="#6c6c6c" stroke-width="0.1" stroke="#fff" />

 <rect x="262" width="1" y="145.0" height="55.0"
  fill="#6c6c6c" stroke-width="0.1" stroke="#fff" />

 <rect x="263" width="1" y="130.0" height="70.0"
  fill="#6c6c6c" stroke-width="0.1" stroke="#fff" />

 <rect x="264" width="1" y="155.0" height="45.0"
  fill="#6c6c6c" stroke-width="0.1" stroke="#fff" />

 <rect x="265" width="1" y="160.0" height="40.0"
  fill="#6c6c6c" stroke-width="0.1" stroke="#fff" />

 <rect x="266" width="1" y="145.0" height="55.0"
  fill="#6c6c6c" stroke-width="0.1" stroke="#fff" />

 <rect x="267" width="1" y="135.0" height="65.0"
  fill="#6c6c6c" stroke-width="0.1" stroke="#fff" />

 <rect x="268" width="1" y="155.0" height="45.0"
  fill="#6c6c6c" stroke-width="0.1" stroke="#fff" />

 <rect x="269" width="1" y="160.0" height="40.0"
  fill="#6c6c6c" stroke-width="0.1" stroke="#fff" />

 <rect x="270" width="1" y="150.0" height="50.0"
  fill="#6c6c6c" stroke-width="0.1" stroke="#fff" />

 <rect x="271" width="1" y="140.0" height="60.0"
  fill="#6c6c6c" stroke-width="0.1" stroke="#fff" />

 <rect x="272" width="1" y="130.0" height="70.0"
  fill="#6c6c6c" stroke-width="0.1" stroke="#fff" />

 <rect x="273" width="1" y="140.0" height="60.0"
  fill="#6c6c6c" stroke-width="0.1" stroke="#fff" />

 <rect x="274" width="1" y="130.0" height="70.0"
  fill="#6c6c6c" stroke-width="0.1" stroke="#fff" />

 <rect x="275" width="1" y="120.0" height="80.0"
  fill="#6c6c6c" stroke-width="0.1" stroke="#fff" />

 <rect x="276" width="1" y="130.0" height="70.0"
  fill="#6c6c6c" stroke-width="0.1" stroke="#fff" />

 <rect x="277" width="1" y="150.0" height="50.0"
  fill="#6c6c6c" stroke-width="0.1" stroke="#fff" />

 <rect x="278" width="1" y="125.0" height="75.0"
  fill="#6c6c6c" stroke-width="0.1" stroke="#fff" />

 <rect x="279" width="1" y="87.5" height="112.5"
  fill="#6c6c6c" stroke-width="0.1" stroke="#fff" />

 <rect x="280" width="1" y="85.0" height="115.0"
  fill="#6c6c6c" stroke-width="0.1" stroke="#fff" />

 <rect x="281" width="1" y="80.0" height="120.0"
  fill="#6c6c6c" stroke-width="0.1" stroke="#fff" />

 <rect x="282" width="1" y="50.0" height="150.0"
  fill="#6c6c6c" stroke-width="0.1" stroke="#fff" />

 <rect x="283" width="1" y="150.0" height="50.0"
  fill="#6c6c6c" stroke-width="0.1" stroke="#fff" />

 <rect x="284" width="1" y="100.0" height="100.0"
  fill="#6c6c6c" stroke-width="0.1" stroke="#fff" />

 <rect x="285" width="1" y="60.0" height="140.0"
  fill="#6c6c6c" stroke-width="0.1" stroke="#fff" />

 <rect x="286" width="1" y="40.0" height="160.0"
  fill="#6c6c6c" stroke-width="0.1" stroke="#fff" />

 <rect x="287" width="1" y="48.7" height="151.3"
  fill="#6c6c6c" stroke-width="0.1" stroke="#fff" />

 <rect x="288" width="1" y="103.7" height="96.3"
  fill="#6c6c6c" stroke-width="0.1" stroke="#fff" />

 <rect x="289" width="1" y="109.4" height="90.6"
  fill="#6c6c6c" stroke-width="0.1" stroke="#fff" />

 <rect x="290" width="1" y="95.0" height="105.0"
  fill="#6c6c6c" stroke-width="0.1" stroke="#fff" />

 <rect x="291" width="1" y="86.2" height="113.8"
  fill="#6c6c6c" stroke-width="0.1" stroke="#fff" />

 <rect x="292" width="1" y="91.2" height="108.8"
  fill="#6c6c6c" stroke-width="0.1" stroke="#fff" />

 <rect x="293" width="1" y="106.2" height="93.8"
  fill="#6c6c6c" stroke-width="0.1" stroke="#fff" />

 <rect x="294" width="1" y="81.2" height="118.8"
  fill="#6c6c6c" stroke-width="0.1" stroke="#fff" />

 <rect x="295" width="1" y="52.1" height="147.9"
  fill="#6c6c6c" stroke-width="0.1" stroke="#fff" />

 <rect x="296" width="1" y="61.2" height="138.8"
  fill="#6c6c6c" stroke-width="0.1" stroke="#fff" />

 <rect x="297" width="1" y="96.2" height="103.8"
  fill="#6c6c6c" stroke-width="0.1" stroke="#fff" />

 <rect x="298" width="1" y="121.2" height="78.8"
  fill="#6c6c6c" stroke-width="0.1" stroke="#fff" />

 <rect x="299" width="1" y="141.2" height="58.8"
  fill="#6c6c6c" stroke-width="0.1" stroke="#fff" />

 <rect x="300" width="1" y="143.7" height="56.3"
  fill="#6c6c6c" stroke-width="0.1" stroke="#fff" />

 <rect x="301" width="1" y="133.7" height="66.3"
  fill="#6c6c6c" stroke-width="0.1" stroke="#fff" />

 <rect x="302" width="1" y="140.6" height="59.4"
  fill="#6c6c6c" stroke-width="0.1" stroke="#fff" />

 <rect x="303" width="1" y="130.0" height="70.0"
  fill="#6c6c6c" stroke-width="0.1" stroke="#fff" />

 <rect x="304" width="1" y="127.5" height="72.5"
  fill="#6c6c6c" stroke-width="0.1" stroke="#fff" />

 <rect x="305" width="1" y="147.5" height="52.5"
  fill="#6c6c6c" stroke-width="0.1" stroke="#fff" />

 <rect x="306" width="1" y="140.0" height="60.0"
  fill="#6c6c6c" stroke-width="0.1" stroke="#fff" />

 <rect x="307" width="1" y="155.0" height="45.0"
  fill="#6c6c6c" stroke-width="0.1" stroke="#fff" />

 <rect x="308" width="1" y="160.0" height="40.0"
  fill="#6c6c6c" stroke-width="0.1" stroke="#fff" />

 <rect x="309" width="1" y="165.0" height="35.0"
  fill="#6c6c6c" stroke-width="0.1" stroke="#fff" />

 <rect x="310" width="1" y="152.5" height="47.5"
  fill="#6c6c6c" stroke-width="0.1" stroke="#fff" />

 <rect x="311" width="1" y="155.0" height="45.0"
  fill="#6c6c6c" stroke-width="0.1" stroke="#fff" />

 <rect x="312" width="1" y="152.5" height="47.5"
  fill="#6c6c6c" stroke-width="0.1" stroke="#fff" />

 <rect x="313" width="1" y="142.5" height="57.5"
  fill="#6c6c6c" stroke-width="0.1" stroke="#fff" />

 <rect x="314" width="1" y="155.0" height="45.0"
  fill="#6c6c6c" stroke-width="0.1" stroke="#fff" />

 <rect x="315" width="1" y="195.0" height="5.0"
  fill="#6c6c6c" stroke-width="0.1" stroke="#fff" />

 <rect x="316" width="1" y="195.0" height="5.0"
  fill="#6c6c6c" stroke-width="0.1" stroke="#fff" />

<g style="font-family:Arial;font-size:10px">

  
  

  
  

  
  

  
  

  
  

  
  

  
  
    <text x="-6" y="200" style="dominant-baseline:hanging">
      1700
    </text>
  

  
  

  
  

  
  

  
  

  
  

  
  

  
  

  
  

  
  

  
  

  
  

  
  

  
  

  
  

  
  

  
  

  
  

  
  

  
  

  
  

  
  

  
  

  
  

  
  

  
  

  
  

  
  

  
  

  
  

  
  

  
  

  
  

  
  

  
  

  
  

  
  

  
  

  
  

  
  

  
  

  
  

  
  

  
  

  
  

  
  

  
  

  
  

  
  

  
  

  
  
    <text x="44" y="200" style="dominant-baseline:hanging">
      1750
    </text>
  

  
  

  
  

  
  

  
  

  
  

  
  

  
  

  
  

  
  

  
  

  
  

  
  

  
  

  
  

  
  

  
  

  
  

  
  

  
  

  
  

  
  

  
  

  
  

  
  

  
  

  
  

  
  

  
  

  
  

  
  

  
  

  
  

  
  

  
  

  
  

  
  

  
  

  
  

  
  

  
  

  
  

  
  

  
  

  
  

  
  

  
  

  
  

  
  

  
  

  
  
    <text x="94" y="200" style="dominant-baseline:hanging">
      1800
    </text>
  

  
  

  
  

  
  

  
  

  
  

  
  

  
  

  
  

  
  

  
  

  
  

  
  

  
  

  
  

  
  

  
  

  
  

  
  

  
  

  
  

  
  

  
  

  
  

  
  

  
  

  
  

  
  

  
  

  
  

  
  

  
  

  
  

  
  

  
  

  
  

  
  

  
  

  
  

  
  

  
  

  
  

  
  

  
  

  
  

  
  

  
  

  
  

  
  

  
  

  
  
    <text x="144" y="200" style="dominant-baseline:hanging">
      1850
    </text>
  

  
  

  
  

  
  

  
  

  
  

  
  

  
  

  
  

  
  

  
  

  
  

  
  

  
  

  
  

  
  

  
  

  
  

  
  

  
  

  
  

  
  

  
  

  
  

  
  

  
  

  
  

  
  

  
  

  
  

  
  

  
  

  
  

  
  

  
  

  
  

  
  

  
  

  
  

  
  

  
  

  
  

  
  

  
  

  
  

  
  

  
  

  
  

  
  

  
  

  
  
    <text x="194" y="200" style="dominant-baseline:hanging">
      1900
    </text>
  

  
  

  
  

  
  

  
  

  
  

  
  

  
  

  
  

  
  

  
  

  
  

  
  

  
  

  
  

  
  

  
  

  
  

  
  

  
  

  
  

  
  

  
  

  
  

  
  

  
  

  
  

  
  

  
  

  
  

  
  

  
  

  
  

  
  

  
  

  
  

  
  

  
  

  
  

  
  

  
  

  
  

  
  

  
  

  
  

  
  

  
  

  
  

  
  

  
  

  
  
    <text x="244" y="200" style="dominant-baseline:hanging">
      1950
    </text>
  

  
  

  
  

  
  

  
  

  
  

  
  

  
  

  
  

  
  

  
  

  
  

  
  

  
  

  
  

  
  

  
  

  
  

  
  

  
  

  
  

  
  

  
  

  
  

  
  

  
  

  
  

  
  

  
  

  
  

  
  

  
  

  
  

  
  

  
  

  
  

  
  

  
  

  
  

  
  

  
  

  
  

  
  

  
  

  
  

  
  

  
  

  
  

  
  

  
  

  
  
    <text x="294" y="200" style="dominant-baseline:hanging">
      2000
    </text>
  

  
  

  
  

  
  

  
  

  
  

  
  

  
  

  
  

  
  

  
  

</g></svg>